# xmcd CD database file
#
# Track frame offsets:
#	150
#	13859
#	28326
#	41782
#	61359
#	76725
#	90961
#	102640
#	120563
#	147461
#	164230
#	180245
#	195825
#	214371
#
# Disc length: 3025 seconds
#
# Revision: 0
# Processed by: cddbd v1.5.1PL0 Copyright (c) Steve Scherf et al.
# Submitted via: CDex 1.51
#
DISCID=c20bcf0e
DTITLE=Norah Jones - Come away with me
DYEAR=2001
DGENRE=Jazz
TTITLE0=Don't know why
TTITLE1=Seven years
TTITLE2=Cold cold heart
TTITLE3=Feelin' the same way
TTITLE4=Come away with me
TTITLE5=Shoot the moon
TTITLE6=Turn me on
TTITLE7=Lonestar
TTITLE8=I've got to see you again
TTITLE9=Painter song
TTITLE10=One flight down
TTITLE11=Nightingale
TTITLE12=The long day is over
TTITLE13=The nearness of you
EXTD=YEAR: 2001
EXTT0=
EXTT1=
EXTT2=
EXTT3=
EXTT4=
EXTT5=
EXTT6=
EXTT7=
EXTT8=
EXTT9=
EXTT10=
EXTT11=
EXTT12=
EXTT13=
PLAYORDER=
